<?xml version="1.0" standalone="no"?>
<!DOCTYPE svg PUBLIC "-//W3C//DTD SVG 20010904//EN"
 "http://www.w3.org/TR/2001/REC-SVG-20010904/DTD/svg10.dtd">
<svg version="1.0" xmlns="http://www.w3.org/2000/svg"
 width="97.000000pt" height="86.000000pt" viewBox="0 0 97.000000 86.000000"
 preserveAspectRatio="xMidYMid meet">

<g transform="translate(0.000000,86.000000) scale(0.100000,-0.100000)"
fill="#000000" stroke="none">
<path d="M47 804 c-13 -13 -7 -42 9 -48 9 -3 39 -6 67 -6 l52 -1 79 -200 c83
-210 82 -205 52 -300 -8 -25 -11 -51 -7 -58 6 -9 52 -9 197 0 104 6 190 12
192 14 2 1 -71 6 -162 10 -181 8 -180 8 -151 65 l16 30 173 0 c95 0 193 3 217
6 l44 6 63 163 c34 89 62 165 62 169 0 3 -87 5 -192 4 l-193 -3 183 -2 c100
-2 182 -5 182 -7 0 -8 -122 -291 -129 -298 -3 -4 -100 -4 -215 0 l-209 7 -82
225 -82 225 -79 3 c-44 1 -83 0 -87 -4z"/>
<path d="M345 145 c-32 -31 -32 -59 0 -90 29 -30 64 -32 93 -5 31 29 29 73 -4
99 -35 27 -59 26 -89 -4z"/>
<path d="M660 163 c-42 -15 -54 -79 -20 -113 42 -42 113 -11 113 50 0 50 -44
80 -93 63z"/>
</g>
</svg>
